<?xml version="1.0" encoding="UTF-8" standalone="no"?>
<svg
   data-v-fde0c5aa=""
   viewBox="0 0 300 300"
   class="iconAboveSlogan"
   version="1.1"
   id="svg32"
   sodipodi:docname="default-no-background.svg"
   inkscape:version="1.1 (c68e22c387, 2021-05-23)"
   inkscape:export-filename="C:\Users\Ricky\Downloads\FizzBuzz-logo\default-no-background.png"
   inkscape:export-xdpi="96"
   inkscape:export-ydpi="96"
   xmlns:inkscape="http://www.inkscape.org/namespaces/inkscape"
   xmlns:sodipodi="http://sodipodi.sourceforge.net/DTD/sodipodi-0.dtd"
   xmlns:xlink="http://www.w3.org/1999/xlink"
   xmlns="http://www.w3.org/2000/svg"
   xmlns:svg="http://www.w3.org/2000/svg">
  <sodipodi:namedview
     id="namedview34"
     pagecolor="#505050"
     bordercolor="#eeeeee"
     borderopacity="1"
     inkscape:pageshadow="0"
     inkscape:pageopacity="0"
     inkscape:pagecheckerboard="0"
     showgrid="false"
     inkscape:zoom="2.51"
     inkscape:cx="150"
     inkscape:cy="150"
     inkscape:window-width="3440"
     inkscape:window-height="1377"
     inkscape:window-x="-8"
     inkscape:window-y="-8"
     inkscape:window-maximized="1"
     inkscape:current-layer="svg32" />
  <!---->
  <defs
     data-v-fde0c5aa=""
     id="defs2">
    <linearGradient
       id="linearGradient1475"
       inkscape:swatch="solid">
      <stop
         style="stop-color:#000000;stop-opacity:1;"
         offset="0"
         id="stop1473" />
    </linearGradient>
    <!---->
    <linearGradient
       inkscape:collect="always"
       xlink:href="#f96fc0de-5f06-4739-ac35-6ad91f58ad70"
       id="linearGradient3466"
       x1="0.63999999"
       y1="8.1000004"
       x2="54.07"
       y2="8.1000004"
       gradientUnits="userSpaceOnUse" />
  </defs>
  <defs
     data-v-fde0c5aa=""
     id="defs6">
    <!---->
  </defs>
  <g
     data-v-fde0c5aa=""
     id="2dc37f37-fa65-46a9-b253-c101b1e1f4b4"
     fill="#2F2849"
     transform="matrix(4.866180020867672,0,0,4.866180020867672,16.885644566209024,146.38362711192735)"
     style="fill-opacity:1.0;fill:url(#linearGradient3466);fill-rule:nonzero">
    <path
       d="M0.64 12.61L0.64 12.33L1.64 12.10L1.74 10.90L1.74 5.39L1.64 4.18L0.64 3.96L0.64 3.64L7.19 3.64L7.59 5.41L7.38 5.47L7.19 5.39L6.25 4.06L4.25 4.06L3.34 4.22L3.28 5.18L3.28 7.74L4.25 7.88L5.65 7.78L6.21 6.89L6.37 6.79L6.55 6.86L6.55 9.35L6.38 9.39L6.21 9.30L5.71 8.41L4.25 8.31L3.28 8.48L3.28 10.90L3.36 12.10L4.44 12.33L4.44 12.61L0.64 12.61ZM9.86 5.03L9.86 5.03Q9.50 5.03 9.26 4.81L9.26 4.81L9.26 4.81Q9.01 4.59 9.01 4.28L9.01 4.28L9.01 4.28Q9.01 3.96 9.26 3.73L9.26 3.73L9.26 3.73Q9.52 3.50 9.86 3.50L9.86 3.50L9.86 3.50Q10.21 3.50 10.47 3.73L10.47 3.73L10.47 3.73Q10.72 3.96 10.72 4.28L10.72 4.28L10.72 4.28Q10.72 4.59 10.47 4.81L10.47 4.81L10.47 4.81Q10.21 5.03 9.86 5.03L9.86 5.03ZM8.23 12.61L8.23 12.33L9.17 12.10L9.28 10.90L9.28 8.68L9.17 7.71L8.22 7.45L8.22 7.18L10.65 6.55L10.81 6.73L10.71 7.55L10.71 10.90L10.79 12.10L11.69 12.33L11.69 12.61L8.23 12.61ZM12.63 12.59L12.48 12.40L12.51 12.28L16.08 7.23L14.25 7.21L14.25 7.21Q13.85 7.21 13.60 7.40L13.60 7.40L13.60 7.40Q13.34 7.59 13.23 7.80L13.23 7.80L13.23 7.80Q13.13 8.01 12.99 8.34L12.99 8.34L12.69 8.44L12.62 8.41L12.87 6.77L17.84 6.77L17.88 6.93L17.88 6.93Q17.61 7.29 15.92 9.67L15.92 9.67L15.92 9.67Q14.23 12.04 14.23 12.11L14.23 12.11L14.23 12.18L16.06 12.18L16.06 12.18Q16.69 12.18 17.14 11.76L17.14 11.76L17.14 11.76Q17.58 11.33 17.73 10.84L17.73 10.84L17.83 10.80L18.10 10.90L17.50 12.59L12.63 12.59ZM19.14 12.59L18.99 12.40L19.02 12.28L22.59 7.23L20.75 7.21L20.75 7.21Q20.36 7.21 20.10 7.40L20.10 7.40L20.10 7.40Q19.85 7.59 19.74 7.80L19.74 7.80L19.74 7.80Q19.63 8.01 19.50 8.34L19.50 8.34L19.20 8.44L19.13 8.41L19.37 6.77L24.35 6.77L24.39 6.93L24.39 6.93Q24.12 7.29 22.43 9.67L22.43 9.67L22.43 9.67Q20.74 12.04 20.74 12.11L20.74 12.11L20.74 12.18L22.57 12.18L22.57 12.18Q23.20 12.18 23.65 11.76L23.65 11.76L23.65 11.76Q24.09 11.33 24.24 10.84L24.24 10.84L24.34 10.80L24.61 10.90L24.01 12.59L19.14 12.59ZM25.55 12.61L25.55 12.26L26.55 12.04L26.65 10.84L26.65 5.39L26.55 4.18L25.55 3.96L25.55 3.64L29.57 3.64L29.57 3.64Q30.28 3.64 30.95 3.85L30.95 3.85L30.95 3.85Q31.61 4.06 32.04 4.50L32.04 4.50L32.04 4.50Q32.47 4.95 32.47 5.62L32.47 5.62L32.47 5.62Q32.47 6.25 32.05 6.75L32.05 6.75L32.05 6.75Q31.62 7.26 30.86 7.53L30.86 7.53L30.86 7.74L30.86 7.74Q31.49 7.79 32.02 8.13L32.02 8.13L32.02 8.13Q32.55 8.48 32.86 9.01L32.86 9.01L32.86 9.01Q33.17 9.54 33.17 10.17L33.17 10.17L33.17 10.17Q33.17 11.51 31.97 12.06L31.97 12.06L31.97 12.06Q30.78 12.61 28.89 12.61L28.89 12.61L25.55 12.61ZM28.19 7.60L29.35 7.60L29.35 7.60Q30.05 7.60 30.44 7.13L30.44 7.13L30.44 7.13Q30.83 6.66 30.83 5.88L30.83 5.88L30.83 5.88Q30.83 5.00 30.34 4.52L30.34 4.52L30.34 4.52Q29.85 4.03 29.03 4.03L29.03 4.03L28.25 4.18L28.19 5.18L28.19 7.60ZM29.04 12.21L29.04 12.21Q30.13 12.21 30.76 11.75L30.76 11.75L30.76 11.75Q31.39 11.29 31.39 10.16L31.39 10.16L31.39 10.16Q31.39 9.20 30.86 8.60L30.86 8.60L30.86 8.60Q30.32 8.00 29.07 8.00L29.07 8.00L28.19 8.00L28.19 11.06L28.30 12.06L29.04 12.21ZM38.95 12.70L38.84 12.50L38.84 12.06L38.76 11.91L38.76 11.91Q38.36 12.25 37.78 12.47L37.78 12.47L37.78 12.47Q37.19 12.69 36.70 12.69L36.70 12.69L36.70 12.69Q35.68 12.69 35.30 12.18L35.30 12.18L35.30 12.18Q34.92 11.68 34.92 10.66L34.92 10.66L34.92 8.60L34.78 7.60L33.89 7.33L33.89 7.04L36.26 6.55L36.42 6.75L36.30 7.62L36.30 10.27L36.30 10.27Q36.30 11.01 36.42 11.38L36.42 11.38L36.42 11.38Q36.54 11.76 36.83 11.89L36.83 11.89L36.83 11.89Q37.11 12.03 37.65 12.03L37.65 12.03L38.84 11.32L38.84 8.60L38.72 7.60L37.86 7.33L37.88 7.04L40.21 6.55L40.37 6.75L40.24 7.60L40.24 10.95L40.36 11.77L41.15 11.98L41.18 12.09L41.10 12.28L38.95 12.70ZM42.10 12.59L41.95 12.40L41.97 12.28L45.54 7.23L43.71 7.21L43.71 7.21Q43.31 7.21 43.06 7.40L43.06 7.40L43.06 7.40Q42.81 7.59 42.70 7.80L42.70 7.80L42.70 7.80Q42.59 8.01 42.45 8.34L42.45 8.34L42.15 8.44L42.08 8.41L42.33 6.77L47.30 6.77L47.35 6.93L47.35 6.93Q47.07 7.29 45.38 9.67L45.38 9.67L45.38 9.67Q43.70 12.04 43.70 12.11L43.70 12.11L43.70 12.18L45.53 12.18L45.53 12.18Q46.16 12.18 46.60 11.76L46.60 11.76L46.60 11.76Q47.04 11.33 47.20 10.84L47.20 10.84L47.29 10.80L47.56 10.90L46.96 12.59L42.10 12.59ZM48.60 12.59L48.45 12.40L48.48 12.28L52.05 7.23L50.22 7.21L50.22 7.21Q49.82 7.21 49.57 7.40L49.57 7.40L49.57 7.40Q49.31 7.59 49.21 7.80L49.21 7.80L49.21 7.80Q49.10 8.01 48.96 8.34L48.96 8.34L48.66 8.44L48.59 8.41L48.84 6.77L53.81 6.77L53.85 6.93L53.85 6.93Q53.58 7.29 51.89 9.67L51.89 9.67L51.89 9.67Q50.20 12.04 50.20 12.11L50.20 12.11L50.20 12.18L52.04 12.18L52.04 12.18Q52.66 12.18 53.11 11.76L53.11 11.76L53.11 11.76Q53.55 11.33 53.70 10.84L53.70 10.84L53.80 10.80L54.07 10.90L53.47 12.59L48.60 12.59Z"
       id="path8"
       style="fill-opacity:1.0;fill:url(#linearGradient3466);fill-rule:nonzero" />
  </g>
  <defs
     data-v-fde0c5aa=""
     id="defs16">
    <linearGradient
       data-v-fde0c5aa=""
       gradientTransform="rotate(25)"
       id="f96fc0de-5f06-4739-ac35-6ad91f58ad70"
       x1="0%"
       y1="0%"
       x2="100%"
       y2="0%">
      <stop
         data-v-fde0c5aa=""
         offset="0%"
         stop-color="#E98E0D"
         stop-opacity="1"
         id="stop11" />
      <stop
         data-v-fde0c5aa=""
         offset="100%"
         stop-color="#1536F1"
         stop-opacity="1"
         id="stop13" />
    </linearGradient>
  </defs>
  <g
     data-v-fde0c5aa=""
     id="c28534c4-4d87-4a27-9456-813eed6d40c3"
     stroke="none"
     fill="url(#f96fc0de-5f06-4739-ac35-6ad91f58ad70)"
     transform="matrix(0.8700792532740497,0,0,0.8700792532740497,106.4960348469808,67.10813102847762)">
    <path
       d="M57.01 48.108c-.176.006-1.677.072-3.864.547-4.305-3.678-9.549-3.72-12.925-2.07-1.59.778-2.452 1.792-2.368 2.782.028.33.215 1.13 1.355 1.465 1.66.487 2.976 1.533 3.73 2.249a24.09 24.09 0 0 0-5.079 4.835c-1.463-3.424-5.387-10.433-12.427-9.805a1 1 0 0 0-.91.976c-.007.324-.103 7.373 3.675 10.922-3.778 3.549-3.682 10.597-3.676 10.922a1 1 0 0 0 .91.975c.306.028.606.041.9.041 6.509 0 10.128-6.57 11.528-9.845a24.131 24.131 0 0 0 5.55 5.16c-.757.714-2.065 1.745-3.708 2.226-1.14.335-1.327 1.136-1.355 1.465-.084.991.779 2.005 2.368 2.782 1.345.658 2.986 1.048 4.746 1.048 2.724 0 5.731-.949 8.368-3.281 1.824.35 3.047.403 3.214.408h.087c14.69 0 18.396-11.491 18.433-11.607a1.003 1.003 0 0 0-.023-.653C70.51 46.57 57.057 48.1 57.011 48.108zM26.55 69.941c.116-2.104.722-7.124 3.805-9.088a1.001 1.001 0 0 0 0-1.688c-3.083-1.965-3.689-6.984-3.805-9.088 6.191.218 9.385 8.27 9.978 9.933-.591 1.664-3.773 9.716-9.978 9.931zm13.557-20.926c.437-.38 1.372-.93 2.78-1.247 1.337-.302 4.522-.663 7.815 1.528a28.002 28.002 0 0 0-6.051 2.669c-.781-.802-2.358-2.193-4.544-2.95zm-1.31 10.994c4.99-7.052 12.754-9.095 16.38-9.68-1.702 3.369-4.509 11.1.001 19.362-3.571-.572-11.373-2.603-16.381-9.682zm4.582 12.544c-1.41-.319-2.347-.87-2.781-1.25 2.182-.73 3.779-2.152 4.561-2.96a28.384 28.384 0 0 0 6.2 2.572c-3.35 2.313-6.619 1.947-7.98 1.638zm14.237-2.661c-5.939-9.329-1.183-17.978-.017-19.83 2.181-.146 11.83-.181 15.941 9.967-.657 1.731-4.314 9.654-15.924 9.863z"
       id="path18" />
    <path
       d="M63.626 54.092a3.653 3.653 0 0 0-3.644 3.654 1 1 0 1 0 2 0 1.65 1.65 0 0 1 1.644-1.654c.907 0 1.645.742 1.645 1.654a1 1 0 1 0 2 0 3.654 3.654 0 0 0-3.645-3.654z"
       id="path20" />
    <path
       d="M74.454 21.33a2.085 2.085 0 0 0 1.963-2.078v-7.17A2.084 2.084 0 0 0 74.335 10h-48.67a2.084 2.084 0 0 0-2.082 2.081v7.171c0 1.107.87 2.016 1.963 2.078A39.887 39.887 0 0 0 10 52.978c0 16.216 9.679 30.718 24.658 36.946.121.05.252.076.384.076h29.916c.132 0 .263-.026.384-.076C80.322 83.696 90 69.194 90 52.978A39.887 39.887 0 0 0 74.454 21.33zm-48.871-9.249c0-.045.037-.081.082-.081h48.67c.045 0 .082.036.082.081v7.171a.082.082 0 0 1-.082.081h-48.67a.082.082 0 0 1-.082-.081v-7.17zm3.402 9.252h42.03a38.15 38.15 0 0 1 9.852 9.48H19.133a38.15 38.15 0 0 1 9.852-9.48zM64.757 88H35.243C21.116 82.042 12 68.317 12 52.978a37.897 37.897 0 0 1 5.786-20.166h64.428A37.897 37.897 0 0 1 88 52.978C88 68.318 78.884 82.042 64.757 88z"
       id="path22" />
    <path
       d="M75.262 38.294c-2.93 0-5.313 2.383-5.313 5.312s2.383 5.313 5.313 5.313 5.312-2.383 5.312-5.313-2.383-5.312-5.312-5.312zm0 8.625c-1.826 0-3.313-1.486-3.313-3.313s1.487-3.312 3.313-3.312 3.312 1.486 3.312 3.312-1.486 3.313-3.312 3.313zM60.922 74.55c-2.707 0-4.91 2.203-4.91 4.91s2.203 4.91 4.91 4.91 4.91-2.203 4.91-4.91-2.203-4.91-4.91-4.91zm0 7.82c-1.605 0-2.91-1.306-2.91-2.91s1.305-2.91 2.91-2.91 2.91 1.305 2.91 2.91-1.306 2.91-2.91 2.91zM35.16 44.932c2.443 0 4.43-1.989 4.43-4.432s-1.987-4.432-4.43-4.432-4.432 1.989-4.432 4.432 1.988 4.432 4.431 4.432zm0-6.864c1.339 0 2.43 1.091 2.43 2.432s-1.091 2.432-2.43 2.432c-1.342 0-2.432-1.091-2.432-2.432s1.09-2.432 2.431-2.432z"
       id="path24" />
  </g>
  <defs
     data-v-fde0c5aa=""
     id="defs27">
    <!---->
  </defs>
  <g
     data-v-fde0c5aa=""
     id="2ccd4cdc-2efa-423e-bbba-2e97bd32a10a"
     fill="#2f2849"
     transform="matrix(0.58036104,0,0,0.58036104,28.208333,215.40418)"
     style="fill:#1a1a1a;fill-opacity:1">
    <path
       d="m 3.21,15.61 v 0 0 Q 3.14,15.04 3.1,14.36 v 0 0 Q 3.07,13.68 3.07,13.09 v 0 0 q 0,-0.94 0.06,-1.8 v 0 0 Q 3.19,10.43 3.28,9.48 v 0 0 Q 3.37,8.54 3.49,7.43 v 0 0 Q 3.6,6.31 3.68,4.86 v 0 0 q 0.18,0 0.53,0.1 v 0 0 Q 4.55,5.07 4.9,5.21 v 0 0 q 0.35,0.14 0.62,0.28 v 0 0 q 0.26,0.15 0.3,0.25 v 0 0 Q 5.59,6.29 5.4,7.18 v 0 0 Q 5.21,8.06 5.08,9.11 v 0 0 q -0.12,1.05 -0.19,2.16 v 0 0 q -0.07,1.11 -0.07,2.07 v 0 0 q 0,0.45 0.01,0.88 v 0 0 q 0.01,0.44 0.04,0.8 v 0 0 q 0.3,-0.43 0.68,-1.24 v 0 0 q 0.39,-0.8 0.8,-1.8 v 0 0 Q 6.76,10.99 7.17,9.91 v 0 0 Q 7.59,8.82 7.94,7.83 v 0 0 Q 8.29,6.85 8.53,6.05 v 0 0 Q 8.78,5.26 8.88,4.86 v 0 0 q 0.18,0 0.54,0.1 v 0 0 q 0.35,0.11 0.7,0.25 v 0 0 q 0.34,0.14 0.6,0.28 v 0 0 q 0.27,0.15 0.3,0.25 v 0 0 q -0.24,0.55 -0.43,1.44 v 0 0 Q 10.4,8.06 10.28,9.11 v 0 0 q -0.13,1.05 -0.2,2.16 v 0 0 q -0.07,1.11 -0.07,2.07 v 0 0 q 0,0.41 0.01,0.81 v 0 0 q 0,0.4 0.03,0.72 v 0 0 q 0.45,-1.16 0.93,-2.31 v 0 0 q 0.49,-1.14 0.96,-2.18 v 0 0 q 0.48,-1.04 0.93,-1.95 v 0 0 q 0.44,-0.9 0.82,-1.61 v 0 0 q 0.38,-0.7 0.66,-1.16 v 0 0 q 0.28,-0.47 0.43,-0.62 v 0 0 q 0.33,0.04 0.67,0.23 v 0 0 q 0.34,0.19 0.61,0.48 v 0 0 q -0.41,0.33 -0.93,1.06 v 0 0 q -0.51,0.74 -1.06,1.7 v 0 0 q -0.55,0.97 -1.1,2.06 v 0 0 q -0.55,1.09 -1.03,2.13 v 0 0 q -0.47,1.03 -0.84,1.93 v 0 0 q -0.38,0.9 -0.57,1.44 v 0 0 q -0.37,0.17 -0.72,0.17 v 0 0 Q 9.37,16.18 8.97,16.02 v 0 0 Q 8.57,15.85 8.4,15.61 v 0 0 Q 8.36,15.39 8.33,15.09 v 0 0 Q 8.3,14.78 8.29,14.49 v 0 0 Q 8.27,14.2 8.27,13.92 v 0 0 Q 8.26,13.65 8.26,13.45 v 0 0 q 0,-1.24 0.1,-2.54 v 0 0 Q 8.46,9.62 8.6,8.13 v 0 0 Q 8.27,9.09 7.88,10.18 v 0 0 q -0.39,1.09 -0.82,2.16 v 0 0 Q 6.64,13.41 6.2,14.38 v 0 0 q -0.45,0.98 -0.87,1.69 v 0 0 q -0.36,0.17 -0.71,0.17 v 0 0 Q 4.17,16.18 3.77,16.02 v 0 0 Q 3.37,15.85 3.21,15.61 Z m 24.01,-1.25 v 0 0 q 0,-0.58 0.19,-1.51 v 0 0 q 0.2,-0.92 0.52,-1.97 v 0 0 q -0.92,0.07 -1.86,0.18 v 0 0 q -0.93,0.11 -1.61,0.13 v 0 0 q -0.63,1.47 -1,2.7 v 0 0 q -0.37,1.24 -0.58,2.42 v 0 0 q -0.54,-0.13 -0.89,-0.44 v 0 0 q -0.35,-0.32 -0.64,-0.79 v 0 0 q 0.11,-0.23 0.26,-0.58 v 0 0 q 0.15,-0.35 0.35,-0.84 v 0 0 q 0.2,-0.5 0.46,-1.16 v 0 0 q 0.26,-0.67 0.6,-1.55 v 0 0 Q 22.55,10.75 22.4,10.4 v 0 0 q 0.07,-0.05 0.31,-0.12 v 0 0 q 0.25,-0.06 0.61,-0.13 v 0 L 23.51,9.7 v 0 Q 23.8,8.95 23.99,8.43 v 0 0 q 0.19,-0.52 0.32,-1.02 v 0 0 q 0.13,-0.49 0.25,-1.1 v 0 0 q 0.12,-0.6 0.29,-1.52 v 0 0 q 0.59,0.11 1.07,0.52 v 0 0 q 0.48,0.4 0.83,0.98 v 0 0 q -0.12,0.16 -0.3,0.5 v 0 0 q -0.19,0.34 -0.4,0.8 v 0 0 q -0.22,0.47 -0.47,1.05 v 0 0 q -0.25,0.59 -0.55,1.23 v 0 0 Q 25.9,9.76 26.79,9.66 v 0 0 q 0.89,-0.1 1.57,-0.14 v 0 0 Q 28.62,8.79 28.89,8.1 v 0 0 q 0.27,-0.69 0.54,-1.27 v 0 0 q 0.26,-0.57 0.51,-1.01 v 0 0 q 0.24,-0.43 0.44,-0.64 v 0 0 q 0.14,0.01 0.37,0.11 v 0 0 q 0.23,0.09 0.47,0.21 v 0 0 q 0.24,0.13 0.43,0.28 v 0 0 q 0.2,0.14 0.27,0.27 v 0 0 q -0.25,0.24 -0.5,0.61 v 0 0 q -0.26,0.38 -0.5,0.87 v 0 0 Q 30.67,8.02 30.44,8.6 v 0 0 Q 30.2,9.17 29.99,9.79 v 0 0 q 0.28,0.25 0.28,0.63 v 0 0 q 0,0.26 -0.11,0.49 v 0 0 Q 30.03,10.88 29.9,10.87 v 0 0 q -0.12,-0.01 -0.26,-0.02 v 0 0 q -0.24,0.76 -0.44,1.5 v 0 0 q -0.19,0.74 -0.32,1.41 v 0 0 q -0.14,0.67 -0.22,1.23 v 0 0 q -0.07,0.56 -0.07,0.94 v 0 0 q 0,0.14 0,0.23 v 0 0 q 0.01,0.08 0.03,0.14 v 0 0 q -0.31,-0.02 -0.45,-0.11 v 0 0 Q 28.03,16.1 27.96,16 v 0 0 q -0.07,-0.11 -0.13,-0.21 v 0 0 q -0.05,-0.11 -0.18,-0.17 v 0 0 q -0.1,-0.04 -0.18,-0.19 v 0 0 q -0.09,-0.16 -0.14,-0.35 v 0 0 q -0.06,-0.2 -0.09,-0.39 v 0 0 q -0.02,-0.2 -0.02,-0.33 z M 43.99,9.21 v 0 0 q 0.46,0 0.72,0.25 v 0 0 q 0.26,0.26 0.26,0.7 v 0 0 q 0,0.12 -0.02,0.23 v 0 0 q -0.02,0.12 -0.05,0.21 v 0 0 q -0.18,-0.03 -0.41,-0.05 v 0 0 q -0.22,-0.02 -0.53,-0.02 v 0 0 q -0.6,0 -1.22,0.1 v 0 0 q -0.61,0.11 -1.17,0.18 v 0 0 q -0.33,0.74 -0.59,1.43 v 0 0 q -0.27,0.7 -0.46,1.27 v 0 0 q -0.19,0.57 -0.29,0.99 v 0 0 q -0.11,0.42 -0.12,0.63 v 0 0 q 1.13,-0.23 2.29,-0.4 v 0 0 q 1.15,-0.17 2.43,-0.25 v 0 0 q 0.15,0.23 0.26,0.51 v 0 0 q 0.1,0.28 0.1,0.61 v 0 0 q 0,0.08 0,0.18 v 0 0 q 0,0.1 -0.03,0.19 v 0 0 q -0.39,-0.01 -0.82,-0.02 v 0 0 q -0.44,0 -1.14,0 v 0 0 q -0.46,0 -0.87,0.02 v 0 0 q -0.41,0.02 -0.83,0.06 v 0 0 q -0.42,0.04 -0.89,0.11 v 0 0 q -0.47,0.07 -1.06,0.17 v 0 0 Q 38.91,16.06 38.3,15.08 v 0 0 q 0.24,-0.51 0.67,-1.54 v 0 0 q 0.43,-1.02 1.08,-2.75 v 0 0 q -0.63,-0.19 -0.82,-0.7 v 0 0 q 0.07,-0.07 0.4,-0.17 v 0 0 Q 39.97,9.81 40.46,9.7 v 0 0 q 0.21,-0.54 0.36,-0.95 v 0 0 q 0.14,-0.41 0.26,-0.76 v 0 0 q 0.11,-0.36 0.2,-0.7 v 0 0 q 0.09,-0.35 0.17,-0.75 v 0 0 Q 40.96,6.51 40.68,6.27 v 0 0 Q 40.4,6.02 40.4,5.63 v 0 0 q 0,-0.11 0.04,-0.27 v 0 0 Q 40.47,5.21 40.52,5.1 v 0 0 q 0.28,0.04 0.53,0.05 v 0 0 q 0.26,0.02 0.68,0.02 v 0 0 q 0.89,0 1.66,-0.05 v 0 0 q 0.77,-0.05 1.39,-0.11 v 0 0 q 0.62,-0.05 1.07,-0.1 v 0 0 Q 46.3,4.86 46.54,4.86 v 0 0 q 0.32,0 0.57,0.33 v 0 0 q 0.25,0.34 0.38,0.96 v 0 0 Q 47.05,6.1 46.78,6.09 v 0 0 Q 46.51,6.08 46.3,6.08 v 0 0 q -0.77,0 -1.41,0.07 v 0 0 q -0.64,0.08 -1.22,0.16 v 0 0 q -0.09,0.13 -0.19,0.33 v 0 0 Q 43.37,6.83 43.2,7.18 v 0 0 q -0.16,0.35 -0.41,0.88 v 0 0 Q 42.55,8.6 42.2,9.39 v 0 0 q 0.53,-0.08 1,-0.13 v 0 0 q 0.47,-0.05 0.79,-0.05 z m 10.99,7.03 v 0 0 Q 54.18,16 53.9,15.79 v 0 0 q -0.28,-0.22 -0.28,-0.6 v 0 0 q 0,-0.42 0.2,-1.18 v 0 0 q 0.19,-0.77 0.51,-1.7 v 0 0 q 0.31,-0.94 0.72,-1.96 v 0 0 q 0.4,-1.03 0.82,-1.96 v 0 0 q 0.42,-0.94 0.82,-1.72 v 0 0 q 0.4,-0.78 0.71,-1.21 v 0 L 57.3,4.87 v 0 q 0.2,0 0.55,0.1 v 0 0 q 0.35,0.1 0.7,0.24 v 0 0 q 0.36,0.14 0.63,0.28 v 0 0 q 0.28,0.15 0.31,0.25 v 0 0 q -0.07,0.34 -0.12,1.02 v 0 0 Q 59.33,7.43 59.33,8.2 v 0 0 q 0,1.53 0.12,2.99 v 0 0 q 0.12,1.47 0.55,2.98 v 0 0 q 0.23,-1.12 0.49,-2.23 v 0 0 q 0.26,-1.12 0.54,-2.13 v 0 0 q 0.28,-1.02 0.56,-1.89 v 0 0 Q 61.87,7.06 62.13,6.4 v 0 0 q 0.25,-0.65 0.48,-1.02 v 0 0 q 0.22,-0.37 0.4,-0.4 v 0 0 q 0.16,0.03 0.34,0.12 v 0 0 q 0.18,0.09 0.35,0.22 v 0 0 q 0.17,0.13 0.31,0.28 v 0 0 q 0.14,0.15 0.22,0.31 v 0 0 q -0.45,0.18 -0.89,0.85 v 0 0 Q 62.9,7.43 62.5,8.39 v 0 0 q -0.4,0.96 -0.74,2.08 v 0 0 q -0.34,1.12 -0.6,2.21 v 0 0 q -0.26,1.08 -0.41,2.01 v 0 0 q -0.14,0.92 -0.16,1.48 v 0 0 q 0,0.03 0.02,0.04 v 0 0 q -0.05,0.02 -0.09,0.02 v 0 0 q -0.05,0 -0.1,0 v 0 0 q -0.64,0 -1.14,-0.16 v 0 0 Q 58.79,15.9 58.63,15.61 v 0 0 q -0.29,-1.18 -0.49,-2.27 v 0 0 q -0.19,-1.09 -0.33,-2.18 v 0 0 Q 57.68,10.07 57.6,8.95 v 0 0 Q 57.53,7.84 57.48,6.62 v 0 0 q -0.26,0.42 -0.56,1.1 v 0 0 Q 56.63,8.4 56.35,9.21 v 0 0 q -0.28,0.81 -0.54,1.71 v 0 0 q -0.26,0.9 -0.45,1.75 v 0 0 q -0.2,0.85 -0.31,1.62 v 0 0 q -0.11,0.76 -0.11,1.32 v 0 0 q 0,0.29 0,0.42 v 0 0 q 0.01,0.13 0.04,0.21 z m 26.07,-1.86 v 0 0 q 0,-0.51 0.16,-1.31 v 0 0 q 0.16,-0.81 0.42,-1.74 v 0 0 q 0.26,-0.93 0.59,-1.9 v 0 0 Q 82.56,8.46 82.91,7.6 v 0 0 q 0.35,-0.85 0.68,-1.5 v 0 0 Q 83.93,5.46 84.2,5.18 v 0 0 q 0.14,0.01 0.37,0.11 v 0 0 q 0.23,0.09 0.47,0.21 v 0 0 q 0.23,0.13 0.43,0.28 v 0 0 q 0.2,0.14 0.25,0.27 v 0 0 q -0.4,0.36 -0.8,1.1 v 0 0 q -0.4,0.73 -0.77,1.67 v 0 0 q -0.37,0.94 -0.7,1.98 v 0 0 q -0.32,1.04 -0.56,2.02 v 0 0 q -0.23,0.98 -0.37,1.82 v 0 0 Q 82.39,15.48 82.39,16 v 0 0 q 0,0.24 0.04,0.3 v 0 0 q -0.31,-0.02 -0.45,-0.11 v 0 0 Q 81.84,16.1 81.77,16 v 0 0 q -0.08,-0.11 -0.14,-0.21 v 0 0 q -0.07,-0.11 -0.19,-0.17 v 0 0 q -0.1,-0.04 -0.17,-0.19 v 0 0 Q 81.2,15.27 81.15,15.09 v 0 0 Q 81.1,14.9 81.07,14.7 v 0 0 Q 81.05,14.5 81.05,14.38 Z M 94.81,6.69 v 0 0 q -0.56,0 -0.86,-0.31 v 0 0 q -0.3,-0.32 -0.3,-0.77 v 0 0 q 0,-0.11 0.03,-0.26 v 0 0 q 0.04,-0.16 0.09,-0.27 v 0 0 q 0.18,0.09 0.54,0.12 v 0 0 q 0.36,0.04 0.83,0.04 v 0 0 q 0.72,0 1.62,-0.07 v 0 0 q 0.9,-0.06 1.73,-0.13 v 0 0 q 0.83,-0.07 1.46,-0.13 v 0 0 q 0.63,-0.07 0.81,-0.07 v 0 0 q 0.52,0 0.75,0.39 v 0 0 q 0.23,0.38 0.34,1.03 v 0 0 q -0.36,-0.03 -0.72,-0.05 v 0 0 q -0.36,-0.02 -0.61,-0.02 v 0 0 q -0.45,0 -0.9,0.03 v 0 0 Q 99.16,6.24 98.7,6.3 v 0 0 q -0.2,0.41 -0.43,0.96 v 0 0 Q 98.03,7.81 97.8,8.41 v 0 0 q -0.23,0.61 -0.44,1.2 v 0 0 q -0.21,0.6 -0.37,1.07 v 0 0 q -0.31,0.93 -0.54,1.71 v 0 0 q -0.23,0.78 -0.4,1.46 v 0 0 q -0.18,0.68 -0.3,1.3 v 0 0 q -0.13,0.61 -0.23,1.2 v 0 0 q -0.94,-0.14 -1.57,-1.17 v 0 0 q 0.12,-0.44 0.28,-0.95 v 0 0 q 0.16,-0.51 0.37,-1.16 v 0 0 q 0.22,-0.65 0.52,-1.48 v 0 0 q 0.29,-0.82 0.67,-1.87 v 0 0 q 0.14,-0.4 0.29,-0.82 v 0 0 q 0.16,-0.43 0.3,-0.85 v 0 0 q 0.15,-0.42 0.27,-0.81 v 0 0 q 0.12,-0.39 0.2,-0.72 v 0 0 q -0.59,0.07 -1.11,0.12 v 0 0 q -0.53,0.05 -0.93,0.05 z m 23.36,5.74 v 0 0 q 0,-0.98 0.23,-1.92 v 0 0 q 0.24,-0.95 0.66,-1.8 v 0 0 q 0.42,-0.84 1,-1.55 v 0 0 q 0.58,-0.71 1.27,-1.22 v 0 0 q 0.69,-0.52 1.48,-0.81 v 0 0 q 0.78,-0.29 1.61,-0.29 v 0 0 q 0.96,0 1.5,0.41 v 0 0 q 0.54,0.41 0.54,1.13 v 0 0 q 0,0.28 -0.08,0.58 v 0 0 q -0.07,0.29 -0.22,0.58 v 0 0 q -0.15,0.29 -0.34,0.55 v 0 0 q -0.2,0.27 -0.44,0.46 v 0 0 Q 125.02,8.5 124.75,8.22 v 0 0 q -0.26,-0.27 -0.33,-0.63 v 0 0 q 0.49,-0.41 0.77,-0.85 v 0 0 q 0.29,-0.44 0.29,-0.8 v 0 0 q 0,-0.62 -0.77,-0.62 v 0 0 q -0.32,0 -0.66,0.13 v 0 0 q -0.35,0.14 -0.7,0.37 v 0 0 Q 123,6.06 122.67,6.4 v 0 0 q -0.32,0.33 -0.6,0.74 v 0 0 q -1.95,2.8 -1.95,5.73 v 0 0 q 0,1.03 0.32,1.66 v 0 0 q 0.32,0.63 0.86,0.74 v 0 0 q 0.6,-0.14 1.52,-0.77 v 0 0 q 0.93,-0.63 2.02,-1.63 v 0 0 q 0.14,0.14 0.17,0.29 v 0 0 q -0.41,0.53 -0.84,1.02 v 0 0 q -0.44,0.49 -0.87,0.9 v 0 0 q -0.42,0.4 -0.84,0.71 v 0 0 q -0.41,0.31 -0.76,0.48 v 0 0 q -1.73,-0.03 -2.63,-1 v 0 0 q -0.9,-0.96 -0.9,-2.84 z m 21.34,-7.45 v 0 0 q 0.27,0.12 0.55,0.29 v 0 0 q 0.28,0.18 0.51,0.36 v 0 0 q 0.24,0.18 0.4,0.35 v 0 0 q 0.16,0.18 0.18,0.29 v 0 0 Q 140.91,6.22 140.67,6.2 v 0 0 q -0.24,-0.03 -0.43,-0.03 v 0 0 q -0.63,0 -1.26,0.31 v 0 0 q -0.62,0.31 -1.18,0.84 v 0 0 q -0.56,0.53 -1.03,1.25 v 0 0 q -0.48,0.71 -0.82,1.52 v 0 0 q -0.35,0.82 -0.54,1.68 v 0 0 q -0.2,0.87 -0.2,1.71 v 0 0 q 0,1.09 0.37,1.63 v 0 0 q 0.36,0.53 1.06,0.53 v 0 0 q 0.34,0 0.73,-0.13 v 0 0 q 0.39,-0.14 0.8,-0.38 v 0 0 q 0.4,-0.23 0.79,-0.57 v 0 0 q 0.4,-0.34 0.73,-0.74 v 0 0 q 0.49,-0.59 0.88,-1.34 v 0 0 q 0.4,-0.75 0.67,-1.59 v 0 0 q 0.27,-0.84 0.42,-1.73 v 0 0 q 0.15,-0.89 0.15,-1.74 v 0 0 q 0,-0.34 -0.02,-0.57 v 0 0 q -0.01,-0.23 -0.03,-0.39 v 0 0 Q 141.74,6.3 141.72,6.2 v 0 0 q -0.01,-0.1 -0.03,-0.17 v 0 0 q 0.17,0.09 0.37,0.21 v 0 0 q 0.21,0.12 0.38,0.35 v 0 0 q 0.18,0.23 0.3,0.61 v 0 0 q 0.12,0.37 0.12,0.98 v 0 0 q 0,0.98 -0.23,1.92 v 0 0 q -0.24,0.95 -0.65,1.8 v 0 0 q -0.41,0.85 -0.97,1.6 v 0 0 q -0.56,0.74 -1.21,1.3 v 0 0 q -0.84,0.74 -1.79,1.15 v 0 0 q -0.95,0.4 -1.83,0.4 v 0 0 q -1.29,0 -1.97,-0.82 v 0 0 q -0.68,-0.82 -0.68,-2.41 v 0 0 q 0,-0.86 0.19,-1.81 v 0 0 q 0.19,-0.95 0.53,-1.87 v 0 0 q 0.35,-0.93 0.82,-1.76 v 0 0 q 0.48,-0.83 1.05,-1.47 v 0 0 q 0.56,-0.64 1.21,-1.02 v 0 0 q 0.65,-0.37 1.34,-0.37 v 0 0 q 0.22,0 0.42,0.03 v 0 0 q 0.2,0.04 0.42,0.13 z m 16.04,0.77 v 0 0 q -0.61,0.83 -1.12,1.82 v 0 0 q -0.5,1 -0.86,2.04 v 0 0 q -0.35,1.04 -0.54,2.06 v 0 0 q -0.19,1.01 -0.19,1.9 v 0 0 q 0,1.09 0.32,1.58 v 0 0 q 0.32,0.49 1.11,0.49 v 0 0 q 0.91,0 1.59,-0.64 v 0 0 q 0.69,-0.64 1.29,-1.76 v 0 0 q 0.39,-0.72 0.67,-1.59 v 0 0 q 0.28,-0.87 0.46,-1.79 v 0 0 q 0.17,-0.91 0.26,-1.84 v 0 0 q 0.08,-0.94 0.08,-1.79 v 0 0 q 0,-0.55 -0.01,-0.8 v 0 0 q -0.02,-0.25 -0.05,-0.4 v 0 0 q 0.05,0 0.21,0.02 v 0 0 q 0.17,0.03 0.39,0.07 v 0 0 q 0.22,0.05 0.43,0.12 v 0 0 q 0.22,0.07 0.37,0.15 v 0 0 q -0.07,1.06 -0.25,2.2 v 0 0 q -0.19,1.13 -0.5,2.24 v 0 0 q -0.31,1.1 -0.72,2.13 v 0 0 q -0.4,1.02 -0.91,1.83 v 0 0 q -0.74,1.2 -1.66,1.88 v 0 0 q -0.93,0.68 -2.19,0.68 v 0 0 q -1.28,0 -2,-0.75 v 0 0 q -0.71,-0.75 -0.71,-2.27 v 0 0 q 0,-0.88 0.19,-2 v 0 0 q 0.2,-1.11 0.53,-2.26 v 0 0 q 0.33,-1.16 0.76,-2.26 v 0 0 q 0.44,-1.1 0.91,-1.97 v 0 0 q 0.24,0.02 0.56,0.1 v 0 0 q 0.32,0.09 0.63,0.22 v 0 0 q 0.31,0.13 0.57,0.29 v 0 0 q 0.26,0.16 0.38,0.3 z m 12.63,10.49 v 0 0 Q 167.38,16 167.1,15.79 v 0 0 q -0.28,-0.22 -0.28,-0.6 v 0 0 q 0,-0.42 0.2,-1.18 v 0 0 q 0.2,-0.77 0.51,-1.7 v 0 0 q 0.32,-0.94 0.72,-1.96 v 0 0 q 0.41,-1.03 0.83,-1.96 v 0 0 q 0.42,-0.94 0.82,-1.72 v 0 0 q 0.4,-0.78 0.7,-1.21 v 0 l -0.09,-0.59 v 0 q 0.19,0 0.54,0.1 v 0 0 q 0.35,0.1 0.71,0.24 v 0 0 q 0.36,0.14 0.63,0.28 v 0 0 q 0.27,0.15 0.3,0.25 v 0 0 q -0.07,0.34 -0.11,1.02 v 0 0 q -0.04,0.67 -0.04,1.44 v 0 0 q 0,1.53 0.12,2.99 v 0 0 q 0.11,1.47 0.55,2.98 v 0 0 q 0.22,-1.12 0.48,-2.23 v 0 0 q 0.26,-1.12 0.54,-2.13 v 0 0 q 0.28,-1.02 0.56,-1.89 v 0 0 q 0.28,-0.86 0.54,-1.52 v 0 0 q 0.26,-0.65 0.48,-1.02 v 0 0 q 0.23,-0.37 0.41,-0.4 v 0 0 q 0.15,0.03 0.33,0.12 v 0 0 q 0.19,0.09 0.35,0.22 v 0 0 q 0.17,0.13 0.31,0.28 v 0 0 q 0.14,0.15 0.23,0.31 v 0 0 q -0.45,0.18 -0.89,0.85 v 0 0 q -0.44,0.67 -0.84,1.63 v 0 0 q -0.4,0.96 -0.74,2.08 v 0 0 q -0.35,1.12 -0.61,2.21 v 0 0 q -0.26,1.08 -0.4,2.01 v 0 0 q -0.15,0.92 -0.16,1.48 v 0 0 q 0,0.03 0.01,0.04 v 0 0 q -0.04,0.02 -0.09,0.02 v 0 0 q -0.05,0 -0.09,0 v 0 0 q -0.65,0 -1.14,-0.16 v 0 0 q -0.5,-0.17 -0.65,-0.46 v 0 0 q -0.3,-1.18 -0.49,-2.27 v 0 0 q -0.2,-1.09 -0.33,-2.18 v 0 0 q -0.14,-1.09 -0.21,-2.21 v 0 0 q -0.08,-1.11 -0.12,-2.33 v 0 0 q -0.27,0.42 -0.56,1.1 v 0 0 q -0.3,0.68 -0.58,1.49 v 0 0 q -0.28,0.81 -0.53,1.71 v 0 0 q -0.26,0.9 -0.46,1.75 v 0 0 q -0.2,0.85 -0.31,1.62 v 0 0 q -0.11,0.76 -0.11,1.32 v 0 0 q 0,0.29 0.01,0.42 v 0 0 q 0,0.13 0.03,0.21 z m 18.09,-9.55 v 0 0 q -0.56,0 -0.86,-0.31 v 0 0 q -0.3,-0.32 -0.3,-0.77 v 0 0 q 0,-0.11 0.03,-0.26 v 0 0 q 0.04,-0.16 0.09,-0.27 v 0 0 q 0.19,0.09 0.54,0.12 v 0 0 q 0.36,0.04 0.84,0.04 v 0 0 q 0.71,0 1.61,-0.07 v 0 0 q 0.91,-0.06 1.73,-0.13 v 0 0 q 0.83,-0.07 1.46,-0.13 v 0 0 q 0.63,-0.07 0.81,-0.07 v 0 0 q 0.52,0 0.75,0.39 v 0 0 q 0.23,0.38 0.34,1.03 v 0 0 q -0.36,-0.03 -0.72,-0.05 v 0 0 q -0.36,-0.02 -0.61,-0.02 v 0 0 q -0.45,0 -0.9,0.03 v 0 0 q -0.46,0.02 -0.92,0.08 v 0 0 q -0.19,0.41 -0.43,0.96 v 0 0 q -0.24,0.55 -0.47,1.15 v 0 0 q -0.23,0.61 -0.44,1.2 v 0 0 q -0.21,0.6 -0.37,1.07 v 0 0 q -0.3,0.93 -0.53,1.71 v 0 0 q -0.24,0.78 -0.41,1.46 v 0 0 q -0.18,0.68 -0.3,1.3 v 0 0 q -0.13,0.61 -0.23,1.2 v 0 0 q -0.93,-0.14 -1.56,-1.17 v 0 0 q 0.11,-0.44 0.27,-0.95 v 0 0 q 0.16,-0.51 0.38,-1.16 v 0 0 q 0.21,-0.65 0.51,-1.48 v 0 0 q 0.29,-0.82 0.67,-1.87 v 0 0 q 0.14,-0.4 0.29,-0.82 v 0 0 q 0.16,-0.43 0.31,-0.85 v 0 0 q 0.14,-0.42 0.26,-0.81 v 0 0 q 0.12,-0.39 0.2,-0.72 v 0 0 q -0.58,0.07 -1.11,0.12 v 0 0 q -0.52,0.05 -0.93,0.05 z m 21.59,-0.95 v 0 0 q 0.04,0.24 0.06,0.33 v 0 0 q 0.02,0.09 0.02,0.24 v 0 0 q 0,0.47 -0.2,0.87 v 0 0 q -0.2,0.39 -0.55,0.56 v 0 0 Q 206.91,7.36 206.5,7.09 v 0 0 q -0.41,-0.27 -0.89,-0.45 v 0 0 q -0.48,-0.17 -1,-0.26 v 0 0 Q 204.09,6.3 203.6,6.3 v 0 0 q -0.49,0 -0.91,0.08 v 0 0 q -0.43,0.07 -0.76,0.21 v 0 0 q -0.33,0.13 -0.52,0.33 v 0 0 q -0.19,0.19 -0.19,0.44 v 0 0 q 0.04,0.31 0.38,0.63 v 0 0 q 0.34,0.31 0.83,0.61 v 0 0 q 0.49,0.3 1.08,0.6 v 0 0 q 0.6,0.29 1.17,0.56 v 0 0 q 0.71,0.33 1.23,0.62 v 0 0 q 0.52,0.29 0.86,0.63 v 0 0 q 0.33,0.34 0.5,0.78 v 0 0 q 0.17,0.43 0.17,1.05 v 0 0 q 0,0.71 -0.24,1.34 v 0 0 q -0.24,0.62 -0.69,1.08 v 0 0 q -0.46,0.46 -1.1,0.72 v 0 0 q -0.65,0.26 -1.44,0.26 v 0 0 q -0.79,0 -1.7,-0.24 v 0 0 q -0.91,-0.24 -1.7,-0.65 v 0 0 q -0.79,-0.41 -1.31,-0.95 v 0 0 q -0.53,-0.54 -0.53,-1.14 v 0 0 q 0,-0.28 0.16,-0.72 v 0 0 q 0.16,-0.43 0.58,-0.91 v 0 0 q 0.04,0.42 0.46,1 v 0 0 q 0.41,0.57 1.24,1.06 v 0 0 q 0.77,0.45 1.59,0.65 v 0 0 q 0.81,0.21 1.53,0.21 v 0 0 q 0.78,0 1.27,-0.2 v 0 0 q 0.49,-0.2 0.77,-0.47 v 0 0 q 0.28,-0.27 0.39,-0.55 v 0 0 q 0.12,-0.28 0.13,-0.45 v 0 0 q -0.01,-0.28 -0.26,-0.54 v 0 0 q -0.24,-0.26 -0.66,-0.5 v 0 0 q -0.41,-0.25 -0.96,-0.5 v 0 0 q -0.54,-0.25 -1.13,-0.5 v 0 0 q -0.88,-0.4 -1.52,-0.74 v 0 0 q -0.64,-0.34 -1.05,-0.7 v 0 0 q -0.41,-0.36 -0.6,-0.75 v 0 0 q -0.19,-0.39 -0.19,-0.89 v 0 0 q 0,-0.79 0.48,-1.49 v 0 0 q 0.47,-0.7 1.37,-1.06 v 0 0 q 0.45,-0.2 0.96,-0.28 v 0 0 q 0.51,-0.09 1,-0.09 v 0 0 q 0.92,0 1.8,0.26 v 0 0 q 0.89,0.25 1.77,0.64 z m 23.2,4.61 v 0 0 q 1.05,-1.15 1.88,-2.44 v 0 0 q 0.83,-1.29 1.55,-2.9 v 0 0 q 0.36,0.04 0.7,0.2 v 0 0 q 0.33,0.15 0.53,0.35 v 0 0 q -0.77,0.92 -1.39,1.68 v 0 0 q -0.63,0.75 -1.15,1.42 v 0 0 q -0.51,0.66 -0.95,1.27 v 0 0 q -0.45,0.61 -0.87,1.23 v 0 0 q -0.21,0.71 -0.39,1.44 v 0 0 q -0.18,0.73 -0.32,1.39 v 0 0 q -0.14,0.67 -0.22,1.23 v 0 0 q -0.07,0.57 -0.07,0.98 v 0 0 q -0.16,0 -0.49,-0.06 v 0 0 q -0.34,-0.07 -0.69,-0.15 v 0 0 q -0.35,-0.09 -0.64,-0.17 v 0 0 q -0.28,-0.08 -0.34,-0.14 v 0 0 q 0.22,-0.38 0.44,-0.93 v 0 0 q 0.22,-0.55 0.43,-1.16 v 0 0 q 0.21,-0.61 0.4,-1.23 v 0 0 q 0.2,-0.63 0.37,-1.16 v 0 0 q -0.35,-1.09 -0.68,-2.05 v 0 0 q -0.33,-0.96 -0.64,-1.74 v 0 0 q -0.31,-0.77 -0.59,-1.33 v 0 0 Q 227.65,5.52 227.4,5.22 v 0 0 q 0.14,-0.05 0.43,-0.11 v 0 0 Q 228.12,5.05 228.46,5 v 0 0 q 0.34,-0.06 0.7,-0.09 v 0 0 q 0.36,-0.04 0.64,-0.05 v 0 0 q 0,0.35 0.06,0.85 v 0 0 q 0.06,0.51 0.17,1.08 v 0 0 q 0.1,0.57 0.24,1.16 v 0 0 q 0.14,0.59 0.28,1.08 v 0 0 q 0.14,0.49 0.28,0.85 v 0 0 q 0.13,0.35 0.23,0.47 z M 247.7,4.98 v 0 0 q 0.27,0.12 0.55,0.29 v 0 0 q 0.28,0.18 0.52,0.36 v 0 0 q 0.23,0.18 0.4,0.35 v 0 0 q 0.16,0.18 0.17,0.29 v 0 0 Q 249.1,6.22 248.86,6.2 v 0 0 q -0.23,-0.03 -0.43,-0.03 v 0 0 q -0.63,0 -1.25,0.31 v 0 0 q -0.63,0.31 -1.19,0.84 v 0 0 q -0.56,0.53 -1.03,1.25 v 0 0 q -0.48,0.71 -0.82,1.52 v 0 0 q -0.34,0.82 -0.54,1.68 v 0 0 q -0.2,0.87 -0.2,1.71 v 0 0 q 0,1.09 0.37,1.63 v 0 0 q 0.36,0.53 1.06,0.53 v 0 0 q 0.34,0 0.73,-0.13 v 0 0 q 0.39,-0.14 0.8,-0.38 v 0 0 q 0.4,-0.23 0.8,-0.57 v 0 0 q 0.39,-0.34 0.72,-0.74 v 0 0 q 0.49,-0.59 0.89,-1.34 v 0 0 q 0.39,-0.75 0.66,-1.59 v 0 0 q 0.27,-0.84 0.42,-1.73 v 0 0 Q 250,8.27 250,7.42 v 0 0 q 0,-0.34 -0.02,-0.57 v 0 0 q -0.01,-0.23 -0.03,-0.39 v 0 0 Q 249.93,6.3 249.91,6.2 v 0 0 Q 249.9,6.1 249.89,6.03 v 0 0 q 0.16,0.09 0.37,0.21 v 0 0 q 0.2,0.12 0.38,0.35 v 0 0 q 0.17,0.23 0.29,0.61 v 0 0 q 0.12,0.37 0.12,0.98 v 0 0 q 0,0.98 -0.23,1.92 v 0 0 q -0.23,0.95 -0.65,1.8 v 0 0 q -0.41,0.85 -0.97,1.6 v 0 0 q -0.56,0.74 -1.2,1.3 v 0 0 q -0.84,0.74 -1.8,1.15 v 0 0 q -0.95,0.4 -1.83,0.4 v 0 0 q -1.29,0 -1.97,-0.82 v 0 0 q -0.68,-0.82 -0.68,-2.41 v 0 0 q 0,-0.86 0.19,-1.81 v 0 0 q 0.19,-0.95 0.54,-1.87 v 0 0 q 0.34,-0.93 0.81,-1.76 v 0 0 q 0.48,-0.83 1.05,-1.47 v 0 0 q 0.56,-0.64 1.22,-1.02 v 0 0 q 0.65,-0.37 1.33,-0.37 v 0 0 q 0.23,0 0.42,0.03 v 0 0 q 0.2,0.04 0.42,0.13 z m 16.05,0.77 v 0 0 q -0.62,0.83 -1.12,1.82 v 0 0 q -0.51,1 -0.86,2.04 v 0 0 q -0.36,1.04 -0.55,2.06 v 0 0 q -0.19,1.01 -0.19,1.9 v 0 0 q 0,1.09 0.32,1.58 v 0 0 q 0.32,0.49 1.11,0.49 v 0 0 q 0.91,0 1.59,-0.64 v 0 0 q 0.69,-0.64 1.29,-1.76 v 0 0 q 0.39,-0.72 0.67,-1.59 v 0 0 q 0.28,-0.87 0.46,-1.79 v 0 0 q 0.17,-0.91 0.26,-1.84 v 0 0 q 0.08,-0.94 0.08,-1.79 v 0 0 q 0,-0.55 -0.01,-0.8 v 0 0 q -0.02,-0.25 -0.04,-0.4 v 0 0 q 0.04,0 0.21,0.02 v 0 0 q 0.16,0.03 0.38,0.07 v 0 0 q 0.22,0.05 0.44,0.12 v 0 0 q 0.21,0.07 0.37,0.15 v 0 0 q -0.07,1.06 -0.26,2.2 v 0 0 q -0.19,1.13 -0.5,2.24 v 0 0 q -0.31,1.1 -0.71,2.13 v 0 0 q -0.41,1.02 -0.91,1.83 v 0 0 q -0.75,1.2 -1.67,1.88 v 0 0 q -0.92,0.68 -2.18,0.68 v 0 0 q -1.29,0 -2.01,-0.75 v 0 0 q -0.71,-0.75 -0.71,-2.27 v 0 0 q 0,-0.88 0.2,-2 v 0 0 q 0.19,-1.11 0.52,-2.26 v 0 0 q 0.33,-1.16 0.76,-2.26 v 0 0 q 0.44,-1.1 0.91,-1.97 v 0 0 q 0.24,0.02 0.56,0.1 v 0 0 q 0.33,0.09 0.63,0.22 v 0 0 q 0.31,0.13 0.57,0.29 v 0 0 q 0.26,0.16 0.39,0.3 z m 27.58,3.59 v 0 0 q 0.44,0 0.7,0.25 v 0 0 q 0.26,0.25 0.26,0.7 v 0 0 q 0,0.11 -0.01,0.23 v 0 0 q -0.02,0.12 -0.06,0.2 v 0 0 q -0.18,-0.02 -0.4,-0.04 v 0 0 q -0.23,-0.03 -0.54,-0.03 v 0 0 q -0.63,0 -1.26,0.12 v 0 0 q -0.63,0.11 -1.2,0.18 v 0 0 q -0.63,1.48 -1.04,2.78 v 0 0 q -0.4,1.31 -0.63,2.58 v 0 0 q -0.47,-0.11 -0.84,-0.41 v 0 0 q -0.36,-0.29 -0.68,-0.82 v 0 0 q 0.1,-0.23 0.24,-0.54 v 0 0 q 0.14,-0.32 0.33,-0.8 v 0 0 q 0.2,-0.48 0.47,-1.18 v 0 0 q 0.27,-0.69 0.65,-1.65 v 0 0 q -0.59,-0.2 -0.77,-0.69 v 0 0 q 0.07,-0.07 0.39,-0.16 v 0 0 q 0.33,-0.09 0.79,-0.2 v 0 0 q 0.21,-0.55 0.36,-0.98 v 0 0 q 0.16,-0.42 0.28,-0.81 v 0 0 q 0.13,-0.38 0.23,-0.75 v 0 0 q 0.11,-0.38 0.19,-0.8 v 0 h -0.07 v 0 q -0.53,0 -0.86,-0.25 v 0 0 q -0.33,-0.25 -0.33,-0.66 v 0 0 q 0,-0.11 0.04,-0.26 v 0 0 q 0.03,-0.16 0.09,-0.27 v 0 0 q 0.26,0.04 0.52,0.06 v 0 0 q 0.26,0.01 0.68,0.01 v 0 0 q 0.88,0 1.65,-0.05 v 0 0 q 0.77,-0.05 1.4,-0.1 v 0 0 q 0.62,-0.06 1.07,-0.11 v 0 0 q 0.45,-0.05 0.68,-0.05 v 0 0 q 0.33,0 0.58,0.34 v 0 0 q 0.25,0.34 0.39,0.95 v 0 0 q -0.45,-0.04 -0.72,-0.05 v 0 0 q -0.27,-0.02 -0.48,-0.02 v 0 0 q -0.72,0 -1.31,0.07 v 0 0 q -0.6,0.06 -1.13,0.14 v 0 0 q -0.08,0.13 -0.19,0.32 v 0 0 q -0.1,0.2 -0.27,0.56 v 0 0 q -0.17,0.35 -0.43,0.93 v 0 0 q -0.26,0.57 -0.65,1.45 v 0 0 Q 290,9.45 290.49,9.39 v 0 0 q 0.5,-0.05 0.84,-0.05 z m 9.26,5.04 v 0 0 q 0,-0.51 0.16,-1.31 v 0 0 q 0.17,-0.81 0.43,-1.74 v 0 0 q 0.25,-0.93 0.59,-1.9 v 0 0 q 0.34,-0.97 0.69,-1.83 v 0 0 q 0.35,-0.85 0.68,-1.5 v 0 0 q 0.34,-0.64 0.6,-0.92 v 0 0 q 0.14,0.01 0.38,0.11 v 0 0 q 0.23,0.09 0.46,0.21 v 0 0 q 0.24,0.13 0.44,0.28 v 0 0 q 0.19,0.14 0.25,0.27 v 0 0 q -0.41,0.36 -0.81,1.1 v 0 0 q -0.39,0.73 -0.77,1.67 v 0 0 Q 303.32,9.76 303,10.8 v 0 0 q -0.32,1.04 -0.56,2.02 v 0 0 q -0.24,0.98 -0.37,1.82 v 0 0 q -0.13,0.84 -0.13,1.36 v 0 0 q 0,0.24 0.04,0.3 v 0 0 q -0.31,-0.02 -0.45,-0.11 v 0 0 Q 301.39,16.1 301.31,16 v 0 0 q -0.07,-0.11 -0.13,-0.21 v 0 0 q -0.07,-0.11 -0.19,-0.17 v 0 0 q -0.1,-0.04 -0.17,-0.19 v 0 0 q -0.07,-0.16 -0.12,-0.34 v 0 0 q -0.05,-0.19 -0.08,-0.39 v 0 0 q -0.03,-0.2 -0.03,-0.32 z m 13.39,-7.1 v 0 0 q -0.06,-0.2 -0.09,-0.46 v 0 0 q -0.04,-0.25 -0.04,-0.76 v 0 0 q 0,-0.32 0.02,-0.65 v 0 0 q 0.01,-0.33 0.12,-0.57 v 0 0 q 0.69,0.13 1.47,0.23 v 0 0 q 0.77,0.11 1.58,0.19 v 0 0 q 0.82,0.09 1.63,0.14 v 0 0 q 0.81,0.05 1.57,0.05 v 0 0 q 1.03,0 1.66,-0.09 v 0 0 q 0.23,0.31 0.28,0.73 v 0 0 q 0.06,0.42 0.06,0.78 v 0 0 q -1.61,0.66 -3.05,1.68 v 0 0 q -1.45,1.01 -2.62,2.12 v 0 0 q -1.18,1.1 -2.03,2.18 v 0 0 q -0.86,1.08 -1.28,1.88 v 0 0 q 0.26,-0.04 0.52,-0.08 v 0 0 q 0.27,-0.03 0.58,-0.06 v 0 0 q 0.3,-0.03 0.68,-0.06 v 0 0 q 0.38,-0.03 0.87,-0.05 v 0 0 q 0.69,-0.05 1.2,-0.15 v 0 0 q 0.52,-0.11 0.89,-0.22 v 0 0 q 0.36,-0.12 0.58,-0.23 v 0 0 q 0.21,-0.1 0.31,-0.17 v 0 0 q 0.06,0.12 0.14,0.37 v 0 0 q 0.07,0.26 0.14,0.56 v 0 0 q 0.06,0.3 0.1,0.61 v 0 0 q 0.04,0.32 0.04,0.58 v 0 0 q 0,0.14 0,0.19 v 0 0 q -0.01,0.05 -0.03,0.11 v 0 0 q -0.63,-0.04 -1.26,-0.1 v 0 0 q -0.64,-0.06 -1.27,-0.06 v 0 0 q -0.84,0 -1.74,0.1 v 0 0 q -0.91,0.09 -1.74,0.27 v 0 0 q -0.83,0.19 -1.52,0.49 v 0 0 q -0.7,0.29 -1.12,0.7 v 0 0 q -0.11,-0.37 -0.23,-0.62 v 0 0 q -0.12,-0.26 -0.12,-0.63 v 0 0 q 0,-0.36 0.15,-0.58 v 0 0 q 0.15,-0.22 0.4,-0.36 v 0 0 q 0.84,-1.2 1.91,-2.38 v 0 0 q 1.07,-1.19 2.29,-2.29 v 0 0 q 1.22,-1.11 2.52,-2.11 v 0 0 q 1.3,-1 2.6,-1.83 v 0 0 q -0.84,-0.04 -1.78,-0.04 v 0 0 q -0.65,0 -1.3,0.03 v 0 0 q -0.64,0.03 -1.22,0.09 v 0 0 q -0.57,0.06 -1.05,0.18 v 0 0 q -0.49,0.12 -0.82,0.29 z m 16.77,0 v 0 0 q -0.06,-0.2 -0.09,-0.46 v 0 0 q -0.04,-0.25 -0.04,-0.76 v 0 0 q 0,-0.32 0.02,-0.65 v 0 0 q 0.01,-0.33 0.12,-0.57 v 0 0 q 0.69,0.13 1.47,0.23 v 0 0 q 0.77,0.11 1.59,0.19 v 0 0 q 0.81,0.09 1.62,0.14 v 0 0 q 0.81,0.05 1.57,0.05 v 0 0 q 1.03,0 1.66,-0.09 v 0 0 q 0.23,0.31 0.28,0.73 v 0 0 q 0.06,0.42 0.06,0.78 v 0 0 q -1.61,0.66 -3.05,1.68 v 0 0 q -1.44,1.01 -2.62,2.12 v 0 0 q -1.18,1.1 -2.03,2.18 v 0 0 q -0.85,1.08 -1.27,1.88 v 0 0 q 0.25,-0.04 0.51,-0.08 v 0 0 q 0.27,-0.03 0.58,-0.06 v 0 0 q 0.31,-0.03 0.68,-0.06 v 0 0 q 0.38,-0.03 0.87,-0.05 v 0 0 q 0.69,-0.05 1.21,-0.15 v 0 0 q 0.51,-0.11 0.88,-0.22 v 0 0 q 0.36,-0.12 0.58,-0.23 v 0 0 q 0.22,-0.1 0.31,-0.17 v 0 0 q 0.06,0.12 0.14,0.37 v 0 0 q 0.07,0.26 0.14,0.56 v 0 0 q 0.06,0.3 0.1,0.61 v 0 0 q 0.04,0.32 0.04,0.58 v 0 0 q 0,0.14 0,0.19 v 0 0 q -0.01,0.05 -0.02,0.11 v 0 0 q -0.63,-0.04 -1.27,-0.1 v 0 0 q -0.64,-0.06 -1.27,-0.06 v 0 0 q -0.84,0 -1.74,0.1 v 0 0 q -0.9,0.09 -1.74,0.27 v 0 0 q -0.83,0.19 -1.52,0.49 v 0 0 q -0.7,0.29 -1.12,0.7 v 0 0 q -0.11,-0.37 -0.23,-0.62 v 0 0 q -0.12,-0.26 -0.12,-0.63 v 0 0 q 0,-0.36 0.15,-0.58 v 0 0 q 0.15,-0.22 0.4,-0.36 v 0 0 q 0.84,-1.2 1.91,-2.38 v 0 0 q 1.07,-1.19 2.29,-2.29 v 0 0 q 1.22,-1.11 2.52,-2.11 v 0 0 q 1.3,-1 2.6,-1.83 v 0 0 q -0.84,-0.04 -1.77,-0.04 v 0 0 q -0.66,0 -1.31,0.03 v 0 0 q -0.64,0.03 -1.21,0.09 v 0 0 q -0.58,0.06 -1.06,0.18 v 0 0 q -0.48,0.12 -0.82,0.29 z m 34.36,0.18 v 0 0 q 0,0.87 -0.48,1.55 v 0 0 q -0.48,0.68 -1.3,1.13 v 0 0 q 0.53,0.36 0.85,0.89 v 0 0 q 0.31,0.52 0.31,1.15 v 0 0 q 0,0.76 -0.46,1.49 v 0 0 q -0.45,0.74 -1.21,1.3 v 0 0 q -0.75,0.57 -1.72,0.92 v 0 0 q -0.96,0.35 -1.97,0.35 v 0 0 q -1.09,0 -1.91,-0.41 v 0 0 q -0.82,-0.42 -1.28,-1.17 v 0 0 q 0.14,-0.42 0.37,-1.04 v 0 0 q 0.23,-0.63 0.51,-1.32 v 0 0 q 0.28,-0.69 0.56,-1.38 v 0 0 q 0.29,-0.69 0.54,-1.23 v 0 0 q 0.54,-1.19 0.96,-1.98 v 0 0 q 0.42,-0.78 0.77,-1.24 v 0 0 q -0.77,0.24 -1.4,0.54 v 0 0 q -0.63,0.3 -0.93,0.58 v 0 0 Q 357.2,7.5 357.06,7.34 v 0 0 q -0.13,-0.17 -0.25,-0.38 v 0 0 q -0.12,-0.2 -0.19,-0.41 v 0 0 q -0.08,-0.21 -0.1,-0.38 v 0 0 q 0.37,-0.25 0.95,-0.48 v 0 0 q 0.58,-0.23 1.27,-0.4 v 0 0 q 0.68,-0.17 1.4,-0.26 v 0 0 q 0.72,-0.1 1.38,-0.1 v 0 0 q 1.68,0 2.63,0.67 v 0 0 q 0.96,0.67 0.96,1.86 z m -5.34,3.35 v 0 0 q -0.26,-0.13 -0.49,-0.38 v 0 0 q -0.32,0.71 -0.61,1.4 v 0 0 q -0.28,0.69 -0.51,1.27 v 0 0 q -0.22,0.59 -0.36,1.03 v 0 0 q -0.14,0.43 -0.16,0.63 v 0 0 q 0.2,0.11 0.47,0.16 v 0 0 q 0.28,0.06 0.68,0.06 v 0 0 q 0.95,0 1.82,-0.27 v 0 0 q 0.87,-0.26 1.53,-0.72 v 0 0 q 0.66,-0.45 1.05,-1.04 v 0 0 q 0.39,-0.59 0.39,-1.23 v 0 0 q 0,-0.93 -0.8,-1.33 v 0 0 q -1.09,0.45 -2.46,0.45 v 0 0 q -0.2,0 -0.3,0 v 0 0 q -0.11,0 -0.25,-0.03 z m 2.72,-4.86 v 0 0 q -0.3,0 -0.62,0.03 v 0 0 q -0.33,0.04 -0.7,0.11 v 0 0 q 0.06,0.06 0.09,0.12 v 0 0 q 0.04,0.06 0.07,0.13 v 0 0 q -0.13,0.17 -0.31,0.49 v 0 0 q -0.18,0.32 -0.41,0.75 v 0 0 q -0.22,0.43 -0.47,0.95 v 0 0 q -0.24,0.51 -0.49,1.06 v 0 0 q 0.23,-0.06 0.58,-0.09 v 0 0 q 0.34,-0.04 0.68,-0.04 v 0 0 q 0.18,0 0.35,0.02 v 0 0 q 0.18,0.01 0.35,0.04 v 0 0 q 0.67,-0.11 1.21,-0.33 v 0 0 q 0.54,-0.22 0.93,-0.5 v 0 0 q 0.39,-0.29 0.6,-0.64 v 0 0 q 0.21,-0.35 0.21,-0.74 v 0 0 q 0,-0.67 -0.53,-1.02 v 0 0 Q 363.5,5.95 362.49,5.95 Z m 15.41,-0.2 v 0 0 q -0.61,0.83 -1.12,1.82 v 0 0 q -0.5,1 -0.86,2.04 v 0 0 q -0.36,1.04 -0.55,2.06 v 0 0 q -0.18,1.01 -0.18,1.9 v 0 0 q 0,1.09 0.32,1.58 v 0 0 q 0.32,0.49 1.1,0.49 v 0 0 q 0.91,0 1.6,-0.64 v 0 0 q 0.69,-0.64 1.29,-1.76 v 0 0 q 0.39,-0.72 0.67,-1.59 v 0 0 q 0.28,-0.87 0.45,-1.79 v 0 0 q 0.18,-0.91 0.26,-1.84 v 0 0 q 0.09,-0.94 0.09,-1.79 v 0 0 q 0,-0.55 -0.02,-0.8 v 0 0 q -0.01,-0.25 -0.04,-0.4 v 0 0 q 0.04,0 0.21,0.02 v 0 0 q 0.17,0.03 0.39,0.07 v 0 0 q 0.21,0.05 0.43,0.12 v 0 0 q 0.22,0.07 0.37,0.15 v 0 0 q -0.07,1.06 -0.26,2.2 v 0 0 q -0.19,1.13 -0.49,2.24 v 0 0 q -0.31,1.1 -0.72,2.13 v 0 0 q -0.4,1.02 -0.91,1.83 v 0 0 q -0.74,1.2 -1.66,1.88 v 0 0 q -0.93,0.68 -2.19,0.68 v 0 0 q -1.29,0 -2,-0.75 v 0 0 q -0.71,-0.75 -0.71,-2.27 v 0 0 q 0,-0.88 0.19,-2 v 0 0 q 0.2,-1.11 0.53,-2.26 v 0 0 q 0.33,-1.16 0.76,-2.26 v 0 0 q 0.43,-1.1 0.91,-1.97 v 0 0 q 0.24,0.02 0.56,0.1 v 0 0 q 0.32,0.09 0.63,0.22 v 0 0 q 0.31,0.13 0.57,0.29 v 0 0 q 0.26,0.16 0.38,0.3 z m 13.71,1.53 v 0 0 q -0.06,-0.2 -0.09,-0.46 v 0 0 q -0.04,-0.25 -0.04,-0.76 v 0 0 q 0,-0.32 0.02,-0.65 v 0 0 q 0.01,-0.33 0.12,-0.57 v 0 0 q 0.69,0.13 1.46,0.23 v 0 0 q 0.78,0.11 1.59,0.19 v 0 0 q 0.82,0.09 1.63,0.14 v 0 0 q 0.81,0.05 1.57,0.05 v 0 0 q 1.03,0 1.66,-0.09 v 0 0 q 0.23,0.31 0.28,0.73 v 0 0 q 0.06,0.42 0.06,0.78 v 0 0 q -1.61,0.66 -3.05,1.68 v 0 0 q -1.45,1.01 -2.62,2.12 v 0 0 q -1.18,1.1 -2.03,2.18 v 0 0 q -0.86,1.08 -1.28,1.88 v 0 0 q 0.26,-0.04 0.52,-0.08 v 0 0 q 0.27,-0.03 0.58,-0.06 v 0 0 q 0.3,-0.03 0.68,-0.06 v 0 0 q 0.38,-0.03 0.87,-0.05 v 0 0 q 0.69,-0.05 1.2,-0.15 v 0 0 q 0.52,-0.11 0.89,-0.22 v 0 0 q 0.36,-0.12 0.58,-0.23 v 0 0 q 0.21,-0.1 0.31,-0.17 v 0 0 q 0.06,0.12 0.13,0.37 v 0 0 q 0.08,0.26 0.14,0.56 v 0 0 q 0.07,0.3 0.11,0.61 v 0 0 q 0.04,0.32 0.04,0.58 v 0 0 q 0,0.14 -0.01,0.19 v 0 0 q 0,0.05 -0.02,0.11 v 0 0 q -0.63,-0.04 -1.26,-0.1 v 0 0 q -0.64,-0.06 -1.27,-0.06 v 0 0 q -0.84,0 -1.74,0.1 v 0 0 q -0.91,0.09 -1.74,0.27 v 0 0 q -0.83,0.19 -1.53,0.49 v 0 0 q -0.69,0.29 -1.11,0.7 v 0 0 q -0.11,-0.37 -0.23,-0.62 v 0 0 q -0.12,-0.26 -0.12,-0.63 v 0 0 q 0,-0.36 0.15,-0.58 v 0 0 q 0.15,-0.22 0.4,-0.36 v 0 0 q 0.84,-1.2 1.91,-2.38 v 0 0 q 1.07,-1.19 2.29,-2.29 v 0 0 q 1.22,-1.11 2.52,-2.11 v 0 0 q 1.3,-1 2.6,-1.83 v 0 0 Q 396.94,6.69 396,6.69 v 0 0 q -0.65,0 -1.3,0.03 v 0 0 q -0.64,0.03 -1.22,0.09 v 0 0 q -0.57,0.06 -1.05,0.18 v 0 0 q -0.49,0.12 -0.82,0.29 z m 16.77,0 v 0 0 q -0.06,-0.2 -0.09,-0.46 v 0 0 q -0.04,-0.25 -0.04,-0.76 v 0 0 q 0,-0.32 0.02,-0.65 v 0 0 q 0.01,-0.33 0.12,-0.57 v 0 0 q 0.69,0.13 1.47,0.23 v 0 0 q 0.77,0.11 1.59,0.19 v 0 0 q 0.81,0.09 1.62,0.14 v 0 0 q 0.81,0.05 1.57,0.05 v 0 0 q 1.03,0 1.66,-0.09 v 0 0 q 0.23,0.31 0.28,0.73 v 0 0 q 0.06,0.42 0.06,0.78 v 0 0 q -1.61,0.66 -3.05,1.68 v 0 0 q -1.44,1.01 -2.62,2.12 v 0 0 q -1.18,1.1 -2.03,2.18 v 0 0 q -0.85,1.08 -1.27,1.88 v 0 0 q 0.25,-0.04 0.51,-0.08 v 0 0 q 0.27,-0.03 0.58,-0.06 v 0 0 q 0.31,-0.03 0.68,-0.06 v 0 0 q 0.38,-0.03 0.87,-0.05 v 0 0 q 0.69,-0.05 1.21,-0.15 v 0 0 q 0.51,-0.11 0.88,-0.22 v 0 0 q 0.36,-0.12 0.58,-0.23 v 0 0 q 0.22,-0.1 0.31,-0.17 v 0 0 q 0.06,0.12 0.14,0.37 v 0 0 q 0.07,0.26 0.14,0.56 v 0 0 q 0.06,0.3 0.1,0.61 v 0 0 q 0.04,0.32 0.04,0.58 v 0 0 q 0,0.14 0,0.19 v 0 0 q -0.01,0.05 -0.02,0.11 v 0 0 q -0.63,-0.04 -1.27,-0.1 v 0 0 q -0.64,-0.06 -1.27,-0.06 v 0 0 q -0.84,0 -1.74,0.1 v 0 0 q -0.9,0.09 -1.74,0.27 v 0 0 q -0.83,0.19 -1.52,0.49 v 0 0 q -0.7,0.29 -1.12,0.7 v 0 0 q -0.11,-0.37 -0.23,-0.62 v 0 0 q -0.12,-0.26 -0.12,-0.63 v 0 0 q 0,-0.36 0.15,-0.58 v 0 0 q 0.15,-0.22 0.4,-0.36 v 0 0 q 0.84,-1.2 1.91,-2.38 v 0 0 q 1.07,-1.19 2.29,-2.29 v 0 0 q 1.22,-1.11 2.52,-2.11 v 0 0 q 1.3,-1 2.6,-1.83 v 0 0 q -0.84,-0.04 -1.77,-0.04 v 0 0 q -0.66,0 -1.31,0.03 v 0 0 q -0.64,0.03 -1.21,0.09 v 0 0 q -0.58,0.06 -1.06,0.18 v 0 0 q -0.48,0.12 -0.82,0.29 z"
       id="path29"
       style="fill:#1a1a1a;fill-opacity:1" />
  </g>
</svg>
